<svg xmlns="http://www.w3.org/2000/svg" xmlns:xlink="http://www.w3.org/1999/xlink" width="500" zoomAndPan="magnify" viewBox="0 0 375 374.999991" height="500" preserveAspectRatio="xMidYMid meet" version="1.0"><defs><filter x="0%" y="0%" width="100%" height="100%" id="a5c57f0571"><feColorMatrix values="0 0 0 0 1 0 0 0 0 1 0 0 0 0 1 0 0 0 1 0" color-interpolation-filters="sRGB"/></filter><mask id="ecd6c4f725"><g filter="url(#a5c57f0571)"><rect x="-37.5" width="450" fill="#000000" y="-37.499999" height="449.999989" fill-opacity="0.73"/></g></mask><clipPath id="81310942df"><path d="M 1.105469 83 L 59 83 L 59 134 L 1.105469 134 Z M 1.105469 83 " clip-rule="nonzero"/></clipPath><clipPath id="12a4e2c83a"><path d="M 158 73 L 193.960938 73 L 193.960938 88 L 158 88 Z M 158 73 " clip-rule="nonzero"/></clipPath><clipPath id="befd855055"><path d="M 78 221 L 99 221 L 99 360.679688 L 78 360.679688 Z M 78 221 " clip-rule="nonzero"/></clipPath><clipPath id="42b7b3813e"><rect x="0" width="194" y="0" height="361"/></clipPath></defs><g mask="url(#ecd6c4f725)"><g transform="matrix(1, 0, 0, 1, 77, 7)"><g clip-path="url(#42b7b3813e)"><path fill="#ffffff" d="M 85.816406 126.246094 C 92.550781 139.421875 97.289062 153.851562 99.359375 168.65625 C 100.472656 176.574219 100.839844 184.640625 101.359375 192.632812 C 101.878906 200.40625 102.46875 208.25 102.617188 216.019531 C 102.914062 228.601562 101.804688 241.109375 97.4375 253.027344 C 94.699219 260.425781 90.921875 267.457031 87.519531 274.636719 C 84.929688 280.113281 82.414062 285.664062 79.96875 291.289062 C 73.53125 306.164062 67.90625 321.484375 63.023438 336.878906 C 62.28125 339.175781 61.542969 341.542969 60.875 343.835938 C 60.652344 344.503906 61.691406 344.875 61.984375 344.132812 C 67.019531 327.777344 72.71875 311.644531 79.304688 295.804688 C 81.820312 289.808594 84.484375 283.816406 87.148438 277.894531 C 90.40625 271.011719 93.957031 264.277344 96.84375 257.320312 C 101.804688 245.476562 103.726562 232.894531 103.726562 220.164062 C 103.726562 212.839844 103.285156 205.511719 102.765625 198.257812 C 102.246094 189.746094 101.730469 181.382812 100.914062 172.875 C 99.359375 157.921875 95.140625 143.34375 88.703125 129.726562 C 88.113281 128.320312 87.371094 127.0625 86.707031 125.65625 C 86.410156 125.0625 85.445312 125.582031 85.816406 126.246094 Z M 85.816406 126.246094 " fill-opacity="1" fill-rule="nonzero"/><path fill="#ffffff" d="M 150.355469 164.511719 C 144.582031 166.953125 139.253906 170.429688 134.664062 174.871094 C 130.074219 179.386719 126.523438 184.640625 123.859375 190.488281 C 118.898438 201.21875 114.386719 212.097656 109.648438 222.902344 C 106.171875 230.824219 102.765625 238.816406 99.359375 246.734375 C 99.066406 247.328125 100.027344 247.992188 100.324219 247.253906 C 105.949219 234.152344 111.574219 220.980469 117.34375 207.953125 C 119.566406 202.847656 121.785156 197.816406 124.007812 192.78125 C 126.300781 187.453125 129.1875 182.421875 133.109375 178.128906 C 137.996094 172.652344 144.136719 168.507812 150.871094 165.546875 C 151.613281 165.175781 151.019531 164.140625 150.355469 164.511719 Z M 150.355469 164.511719 " fill-opacity="1" fill-rule="nonzero"/><path fill="#ffffff" d="M 129.925781 178.054688 C 131.703125 173.019531 134.21875 168.285156 137.550781 164.066406 C 140.660156 160.21875 144.136719 156.589844 148.503906 154.148438 C 153.90625 151.113281 159.976562 150.449219 166.117188 150.964844 C 171.300781 151.410156 176.40625 152.371094 181.289062 153.851562 C 183.4375 154.519531 185.65625 155.257812 187.730469 156.367188 C 188.46875 156.8125 190.617188 157.921875 190.171875 159.105469 C 190.023438 159.476562 189.652344 159.699219 189.210938 159.847656 C 188.542969 160.21875 187.730469 160.511719 187.0625 160.957031 C 184.621094 162.214844 182.253906 163.546875 180.105469 165.175781 C 178.402344 166.507812 176.851562 168.0625 175.371094 169.542969 C 173.519531 171.394531 171.445312 172.949219 169.226562 174.207031 C 165.15625 176.5 160.417969 178.351562 155.609375 178.5 C 153.316406 178.570312 151.019531 178.128906 148.800781 177.832031 C 146.578125 177.535156 144.210938 177.460938 141.992188 177.757812 C 137.550781 178.351562 133.332031 180.199219 129.707031 182.789062 C 128.445312 183.605469 127.335938 184.566406 126.152344 185.527344 C 125.632812 185.972656 126.375 186.789062 126.894531 186.269531 C 130.964844 182.789062 135.699219 180.050781 141.027344 179.015625 C 143.324219 178.570312 145.691406 178.570312 147.984375 178.867188 C 150.28125 179.164062 152.648438 179.609375 154.941406 179.609375 C 159.753906 179.609375 164.488281 177.90625 168.707031 175.6875 C 171.152344 174.351562 173.445312 172.800781 175.445312 170.875 C 177.070312 169.320312 178.550781 167.691406 180.253906 166.285156 C 182.546875 164.4375 185.066406 162.957031 187.65625 161.625 C 188.691406 161.105469 190.246094 160.585938 190.910156 159.550781 C 192.464844 156.589844 186.472656 154.371094 184.769531 153.703125 C 179.882812 151.855469 174.628906 150.816406 169.449219 150.078125 C 163.601562 149.265625 157.605469 149.042969 151.980469 151.113281 C 146.652344 152.964844 142.285156 156.441406 138.585938 160.660156 C 134.960938 164.804688 131.925781 169.394531 129.777344 174.5 C 129.410156 175.539062 129.039062 176.5 128.59375 177.535156 C 128.667969 178.425781 129.632812 178.792969 129.925781 178.054688 Z M 129.925781 178.054688 " fill-opacity="1" fill-rule="nonzero"/><path fill="#ffffff" d="M 71.164062 110.925781 C 63.167969 117.734375 53.695312 126.320312 54.878906 137.941406 C 54.878906 138.089844 54.953125 138.308594 55.175781 138.382812 C 58.433594 139.789062 60.578125 135.570312 63.097656 134.386719 C 66.203125 132.90625 69.90625 133.425781 73.234375 133.574219 C 76.492188 133.648438 79.894531 133.351562 82.488281 131.207031 C 84.039062 129.949219 85.226562 128.246094 86.335938 126.617188 C 87.742188 124.765625 89.222656 122.917969 90.554688 120.992188 C 93.441406 117.292969 96.179688 113.589844 99.066406 109.890625 C 100.324219 108.261719 101.359375 106.632812 101.878906 104.636719 C 102.320312 102.5625 102.246094 100.417969 102.171875 98.269531 C 102.097656 96.125 101.804688 93.976562 101.433594 91.757812 C 101.0625 89.90625 100.765625 87.6875 99.804688 85.984375 C 98.027344 82.875 94.03125 83.46875 91.144531 84.28125 C 83.894531 86.355469 77.972656 92.425781 76.046875 99.75 C 75.898438 100.417969 77.011719 100.789062 77.15625 100.046875 C 78.785156 93.902344 83.300781 88.648438 89.296875 86.132812 C 91.738281 85.097656 96.253906 83.617188 98.398438 85.835938 C 99.730469 87.167969 99.953125 89.613281 100.324219 91.3125 C 100.691406 93.3125 100.988281 95.382812 101.136719 97.457031 C 101.285156 99.453125 101.359375 101.527344 101.0625 103.527344 C 100.765625 105.523438 99.730469 107.152344 98.621094 108.78125 C 96.179688 112.109375 93.589844 115.367188 91.144531 118.699219 C 88.628906 122.027344 86.261719 125.507812 83.597656 128.613281 C 82.414062 129.945312 81.15625 131.058594 79.527344 131.648438 C 78.046875 132.167969 76.417969 132.316406 74.863281 132.316406 C 71.53125 132.390625 68.128906 131.796875 64.871094 132.539062 C 63.316406 132.90625 61.910156 133.648438 60.726562 134.683594 C 59.542969 135.71875 57.765625 138.015625 55.917969 137.199219 C 55.992188 137.347656 56.066406 137.496094 56.214844 137.644531 C 55.027344 126.320312 64.355469 118.03125 72.199219 111.371094 C 72.570312 111.222656 71.679688 110.410156 71.164062 110.925781 Z M 71.164062 110.925781 " fill-opacity="1" fill-rule="nonzero"/><path fill="#ffffff" d="M 73.234375 109.742188 C 68.792969 108.410156 62.949219 106.191406 62.355469 100.789062 C 62.28125 100.933594 62.207031 101.082031 62.058594 101.230469 C 63.316406 100.492188 64.648438 101.230469 65.761719 101.824219 C 66.945312 102.488281 68.128906 103.304688 69.3125 103.96875 C 71.753906 105.523438 74.269531 107.003906 76.714844 108.558594 C 77.304688 108.929688 77.898438 107.964844 77.230469 107.597656 C 74.417969 105.894531 71.605469 104.191406 68.792969 102.414062 C 66.796875 101.15625 63.835938 98.789062 61.46875 100.269531 C 61.320312 100.34375 61.171875 100.566406 61.171875 100.714844 C 61.835938 106.632812 67.832031 109.296875 72.792969 110.777344 C 73.605469 111.074219 73.902344 109.964844 73.234375 109.742188 Z M 73.234375 109.742188 " fill-opacity="1" fill-rule="nonzero"/><path fill="#ffffff" d="M 70.421875 102.265625 C 66.871094 98.789062 60.285156 95.902344 60.359375 90.203125 C 60.359375 89.613281 60.359375 88.648438 61.023438 88.5 C 61.691406 88.28125 62.503906 89.09375 63.023438 89.613281 C 64.058594 90.425781 64.945312 91.3125 65.910156 92.203125 C 67.683594 94.050781 69.3125 96.125 70.644531 98.269531 C 72.199219 100.789062 73.53125 103.527344 74.417969 106.410156 C 74.640625 107.078125 75.75 106.78125 75.53125 106.117188 C 73.605469 100.34375 70.347656 95.015625 66.054688 90.648438 C 65.019531 89.613281 63.910156 88.574219 62.726562 87.6875 C 61.691406 87.019531 60.503906 86.945312 59.839844 88.058594 C 58.507812 90.425781 60.0625 93.832031 61.542969 95.679688 C 63.761719 98.640625 67.167969 100.417969 69.832031 102.933594 C 70.125 103.527344 70.941406 102.710938 70.421875 102.265625 Z M 70.421875 102.265625 " fill-opacity="1" fill-rule="nonzero"/><path fill="#ffffff" d="M 66.722656 112.183594 C 63.984375 113.148438 61.171875 113.222656 58.285156 112.925781 C 55.695312 112.703125 52.214844 112.703125 50.070312 110.851562 C 49.257812 110.113281 47.921875 107.964844 49.550781 107.300781 C 50.808594 106.78125 52.4375 106.707031 53.695312 106.558594 C 56.730469 106.191406 59.691406 106.117188 62.726562 106.339844 C 63.390625 106.410156 63.390625 105.226562 62.726562 105.226562 C 59.023438 105.003906 55.324219 105.152344 51.699219 105.746094 C 50.441406 105.96875 48.589844 106.042969 47.921875 107.300781 C 47.332031 108.410156 47.777344 109.890625 48.441406 110.851562 C 50.292969 113.367188 53.695312 113.664062 56.433594 113.960938 C 59.914062 114.332031 63.464844 114.480469 66.796875 113.367188 C 67.757812 113.074219 67.460938 111.960938 66.722656 112.183594 Z M 66.722656 112.183594 " fill-opacity="1" fill-rule="nonzero"/><path fill="#ffffff" d="M 86.925781 87.09375 C 87.074219 84.503906 87.445312 81.691406 88.777344 79.398438 C 90.035156 77.105469 92.109375 75.84375 94.550781 75.179688 C 96.621094 74.585938 98.917969 74.144531 100.914062 73.105469 C 102.914062 71.847656 104.097656 69.851562 104.097656 67.484375 C 104.097656 64.597656 102.839844 62.003906 102.765625 59.121094 C 102.765625 56.234375 104.394531 53.347656 103.210938 50.535156 C 102.097656 48.019531 98.992188 47.722656 96.546875 47.574219 C 94.03125 47.351562 91.441406 47.574219 89 48.164062 C 83.375 49.496094 78.34375 52.753906 74.863281 57.34375 C 74.417969 57.859375 75.382812 58.527344 75.824219 57.859375 C 78.859375 53.863281 83.152344 50.976562 87.890625 49.496094 C 90.183594 48.832031 92.699219 48.460938 95.070312 48.460938 C 96.328125 48.460938 97.585938 48.609375 98.84375 48.832031 C 100.472656 49.128906 101.878906 49.570312 102.320312 51.273438 C 102.691406 52.828125 102.246094 54.382812 101.953125 55.9375 C 101.730469 57.269531 101.507812 58.453125 101.65625 59.785156 C 101.878906 62.375 103.0625 64.964844 102.914062 67.628906 C 102.691406 72.960938 96.179688 72.960938 92.476562 74.511719 C 87.371094 76.585938 86.113281 81.914062 85.816406 86.945312 C 85.742188 87.835938 86.851562 87.835938 86.925781 87.09375 Z M 86.925781 87.09375 " fill-opacity="1" fill-rule="nonzero"/><path fill="#ffffff" d="M 102.691406 69.554688 C 99.507812 73.996094 96.253906 78.511719 93.144531 82.949219 C 92.773438 83.542969 93.664062 84.136719 94.105469 83.46875 C 97.289062 79.027344 100.546875 74.511719 103.652344 70.074219 C 104.023438 69.480469 103.136719 68.890625 102.691406 69.554688 Z M 102.691406 69.554688 " fill-opacity="1" fill-rule="nonzero"/><path fill="#ffffff" d="M 67.167969 88.058594 C 68.867188 81.988281 70.570312 75.773438 72.273438 69.703125 C 73.605469 64.964844 75.085938 59.339844 72.273438 54.976562 C 69.90625 51.125 65.242188 49.644531 61.023438 49.128906 C 55.695312 48.460938 50.144531 48.832031 44.816406 49.867188 C 38.746094 51.125 32.824219 53.347656 27.421875 56.527344 C 27.199219 56.675781 27.125 56.898438 27.199219 57.121094 C 28.753906 62.746094 34.082031 65.929688 38.300781 69.480469 C 43.335938 73.699219 46.886719 79.25 48.515625 85.613281 C 48.664062 86.28125 49.773438 85.984375 49.625 85.320312 C 47.996094 79.25 44.667969 73.550781 40.003906 69.40625 C 35.859375 65.707031 29.9375 62.597656 28.3125 56.824219 C 28.238281 57.046875 28.164062 57.195312 28.089844 57.417969 C 37.191406 52.015625 47.851562 49.277344 58.433594 49.941406 C 62.652344 50.164062 67.535156 50.976562 70.496094 54.234375 C 74.050781 58.230469 72.71875 64.003906 71.460938 68.667969 C 69.757812 75.03125 67.980469 81.394531 66.203125 87.761719 C 65.835938 88.425781 66.945312 88.722656 67.167969 88.058594 Z M 67.167969 88.058594 " fill-opacity="1" fill-rule="nonzero"/><path fill="#ffffff" d="M 27.125 56.972656 C 27.496094 61.339844 27.792969 65.78125 27.792969 70.148438 C 27.792969 71.554688 27.792969 73.035156 27.644531 74.367188 C 27.570312 75.550781 27.347656 76.660156 27.273438 77.917969 C 27.125 79.917969 27.570312 82.0625 28.828125 83.691406 C 30.308594 85.542969 32.605469 86.800781 34.453125 88.132812 C 38.820312 91.3125 43.1875 94.570312 47.554688 97.605469 C 49.035156 98.640625 50.441406 99.453125 52.214844 99.675781 C 54.511719 99.972656 56.878906 99.382812 58.953125 98.34375 C 59.542969 98.046875 59.023438 97.011719 58.433594 97.382812 C 56.507812 98.417969 54.289062 98.9375 51.996094 98.566406 C 50.589844 98.34375 49.476562 97.53125 48.292969 96.714844 C 44.222656 93.757812 40.078125 90.796875 36.007812 87.761719 C 34.082031 86.355469 31.863281 85.023438 30.160156 83.394531 C 28.679688 81.839844 28.3125 79.695312 28.460938 77.621094 C 28.605469 75.253906 28.902344 72.886719 28.902344 70.515625 C 28.902344 65.929688 28.605469 61.414062 28.238281 56.898438 C 28.164062 56.160156 27.054688 56.160156 27.125 56.972656 Z M 27.125 56.972656 " fill-opacity="1" fill-rule="nonzero"/><g clip-path="url(#81310942df)"><path fill="#ffffff" d="M 58.65625 105.078125 C 56.804688 103.304688 56.433594 100.492188 55.324219 98.34375 C 54.289062 96.347656 52.957031 94.496094 51.402344 92.792969 C 48.070312 89.390625 43.851562 86.800781 39.265625 85.320312 C 34.011719 83.617188 28.3125 83.320312 22.835938 83.839844 C 17.652344 84.355469 12.101562 85.46875 7.808594 88.648438 C 3.8125 91.609375 1.371094 95.828125 1.445312 100.859375 C 1.519531 106.632812 2.40625 112.628906 3.664062 118.253906 C 4.777344 122.992188 6.402344 127.726562 10.621094 130.613281 C 14.324219 133.054688 19.207031 133.722656 23.5 132.90625 C 29.496094 131.796875 34.75 128.46875 39.632812 125.0625 C 45.113281 121.289062 50.441406 117.292969 55.546875 113 C 56.066406 112.554688 55.324219 111.742188 54.808594 112.257812 C 50.515625 115.886719 46 119.289062 41.410156 122.546875 C 37.117188 125.582031 32.675781 128.761719 27.71875 130.6875 C 23.425781 132.316406 18.691406 132.832031 14.324219 131.28125 C 12.324219 130.613281 10.472656 129.429688 8.996094 127.800781 C 7.292969 125.949219 6.257812 123.582031 5.589844 121.140625 C 4.035156 115.886719 3.296875 110.335938 2.777344 104.933594 C 2.554688 102.265625 2.257812 99.453125 3.074219 96.789062 C 3.738281 94.644531 4.996094 92.71875 6.625 91.164062 C 10.253906 87.613281 15.285156 86.132812 20.167969 85.46875 C 25.5 84.726562 30.976562 84.652344 36.230469 85.835938 C 41.484375 87.019531 46.371094 89.464844 50.144531 93.3125 C 51.847656 95.089844 53.328125 97.085938 54.363281 99.308594 C 55.472656 101.527344 55.84375 104.191406 57.691406 105.96875 C 58.433594 106.410156 59.171875 105.671875 58.65625 105.078125 Z M 58.65625 105.078125 " fill-opacity="1" fill-rule="nonzero"/></g><path fill="#ffffff" d="M 16.394531 110.039062 C 21.722656 109.816406 27.125 109.59375 32.457031 109.371094 C 35.046875 109.222656 37.636719 109.148438 40.226562 109.003906 C 42.742188 108.929688 45.332031 108.855469 47.777344 109.742188 C 48.441406 109.964844 48.738281 108.929688 48.070312 108.632812 C 45.777344 107.816406 43.335938 107.816406 40.894531 107.890625 C 38.15625 107.964844 35.488281 108.113281 32.75 108.261719 C 27.273438 108.484375 21.796875 108.707031 16.320312 109.003906 C 15.730469 109.003906 15.730469 110.039062 16.394531 110.039062 Z M 16.394531 110.039062 " fill-opacity="1" fill-rule="nonzero"/><path fill="#ffffff" d="M 26.683594 132.316406 C 26.3125 137.867188 26.90625 143.933594 29.421875 148.96875 C 31.34375 152.890625 35.859375 156.515625 40.449219 154.816406 C 41.707031 154.371094 42.742188 153.410156 44 153.261719 C 44.59375 153.1875 45.257812 153.261719 45.703125 153.703125 C 46.148438 154.148438 46.148438 154.960938 46.445312 155.480469 C 47.628906 157.847656 50.21875 156.074219 51.773438 155.183594 C 56.066406 152.371094 60.429688 149.558594 64.503906 146.378906 C 69.089844 142.75 73.308594 138.605469 76.492188 133.648438 C 76.863281 133.054688 75.972656 132.464844 75.53125 133.128906 C 70.125 141.492188 61.910156 147.339844 53.769531 152.667969 C 52.808594 153.261719 51.921875 153.925781 50.882812 154.519531 C 49.847656 155.109375 48.070312 156.589844 47.332031 154.960938 C 46.960938 154.222656 46.886719 153.335938 46.148438 152.816406 C 45.480469 152.296875 44.445312 152.222656 43.558594 152.371094 C 42.445312 152.59375 41.558594 153.1875 40.523438 153.703125 C 39.265625 154.222656 38.007812 154.371094 36.675781 154.148438 C 34.304688 153.703125 32.382812 152.078125 31.050781 150.078125 C 29.496094 147.710938 28.753906 144.898438 28.164062 142.160156 C 27.570312 138.976562 27.421875 135.71875 27.644531 132.539062 C 27.867188 131.574219 26.757812 131.574219 26.683594 132.316406 Z M 26.683594 132.316406 " fill-opacity="1" fill-rule="nonzero"/><path fill="#ffffff" d="M 116.011719 42.539062 C 113.054688 46.390625 115.421875 51.199219 117.492188 54.753906 C 117.789062 55.269531 118.675781 54.902344 118.53125 54.308594 C 117.789062 50.386719 118.011719 46.390625 118.972656 42.46875 C 118.75 42.613281 118.53125 42.6875 118.308594 42.835938 C 124.15625 45.28125 129.632812 48.609375 134.589844 52.753906 C 134.960938 53.050781 135.699219 52.753906 135.550781 52.238281 C 133.777344 45.871094 126.894531 43.355469 123.5625 38.027344 C 123.414062 38.324219 123.265625 38.542969 123.117188 38.839844 C 127.78125 38.691406 132.371094 39.65625 136.441406 41.800781 C 136.808594 42.023438 137.476562 41.652344 137.253906 41.207031 C 135.625 37.136719 131.332031 34.621094 126.96875 35.289062 C 126.300781 35.363281 126.597656 36.472656 127.261719 36.398438 C 130.964844 35.878906 134.738281 38.101562 136.144531 41.578125 C 136.441406 41.355469 136.664062 41.207031 136.957031 40.988281 C 132.664062 38.839844 127.855469 37.730469 122.96875 37.878906 C 122.601562 37.878906 122.304688 38.324219 122.527344 38.691406 C 124.15625 41.28125 126.523438 43.355469 128.890625 45.351562 C 131.183594 47.351562 133.554688 49.570312 134.367188 52.679688 C 134.664062 52.53125 134.960938 52.308594 135.328125 52.164062 C 130.222656 47.945312 124.671875 44.539062 118.605469 41.949219 C 118.308594 41.800781 118.011719 42.097656 117.9375 42.320312 C 116.828125 46.390625 116.679688 50.609375 117.492188 54.753906 C 117.789062 54.605469 118.160156 54.457031 118.53125 54.308594 C 116.679688 51.050781 114.460938 46.757812 117.050781 43.207031 C 117.417969 42.539062 116.457031 41.949219 116.011719 42.539062 Z M 116.011719 42.539062 " fill-opacity="1" fill-rule="nonzero"/><path fill="#ffffff" d="M 119.863281 38.394531 C 118.675781 40.246094 117.492188 42.171875 115.792969 43.578125 C 113.71875 45.207031 111.128906 45.425781 108.6875 45.574219 C 105.875 45.722656 103.210938 45.796875 100.398438 45.796875 C 99.140625 45.796875 97.953125 45.796875 96.621094 45.722656 C 95.289062 45.648438 94.03125 45.574219 92.847656 44.984375 C 91.8125 44.464844 90.996094 43.578125 90.257812 42.761719 C 89.519531 41.949219 88.628906 40.988281 88.183594 39.949219 C 87.074219 37.730469 88.925781 36.027344 90.851562 35.140625 C 95.4375 33.140625 100.988281 33.363281 105.800781 33.660156 C 110.757812 34.03125 116.828125 34.03125 120.675781 37.65625 C 121.195312 38.101562 122.007812 37.359375 121.417969 36.917969 C 117.714844 33.363281 112.238281 33.140625 107.355469 32.699219 C 101.878906 32.253906 95.585938 31.882812 90.480469 34.03125 C 88.703125 34.769531 86.851562 36.101562 86.707031 38.175781 C 86.484375 40.542969 88.628906 42.613281 90.183594 44.167969 C 90.921875 44.910156 91.886719 45.722656 92.996094 46.167969 C 94.253906 46.6875 95.511719 46.6875 96.84375 46.757812 C 100.027344 46.832031 103.285156 46.832031 106.390625 46.6875 C 109.425781 46.539062 112.90625 46.613281 115.496094 44.984375 C 117.789062 43.503906 119.417969 41.136719 120.824219 38.914062 C 121.195312 38.394531 120.230469 37.878906 119.863281 38.394531 Z M 119.863281 38.394531 " fill-opacity="1" fill-rule="nonzero"/><path fill="#ffffff" d="M 121.710938 38.175781 C 121.121094 35.804688 120.230469 32.625 122.230469 30.625 C 123.042969 29.8125 124.300781 29.515625 125.488281 29.515625 C 126.820312 29.441406 128.226562 29.515625 129.484375 29.589844 C 132.296875 29.738281 134.960938 30.253906 137.699219 30.773438 C 139.769531 31.070312 141.992188 31.21875 143.839844 30.105469 C 145.320312 29.070312 146.429688 27.367188 145.988281 25.519531 C 145.617188 23.964844 144.210938 23.003906 142.65625 22.632812 C 138.363281 21.671875 134.960938 26.183594 132.148438 28.773438 C 128.445312 32.402344 124.597656 36.324219 119.34375 37.359375 C 118.675781 37.507812 118.972656 38.617188 119.640625 38.46875 C 123.710938 37.730469 127.113281 35.066406 130.148438 32.328125 C 131.777344 30.773438 133.40625 29.21875 135.035156 27.589844 C 136.664062 26.035156 138.363281 24.113281 140.660156 23.667969 C 142.359375 23.371094 144.730469 24.1875 144.878906 26.183594 C 145.023438 28.628906 142.140625 29.886719 140.140625 29.886719 C 137.699219 29.886719 135.109375 29.144531 132.664062 28.773438 C 130.296875 28.480469 127.78125 28.332031 125.339844 28.40625 C 123.117188 28.480469 121.269531 29.21875 120.230469 31.367188 C 119.195312 33.660156 119.789062 36.175781 120.378906 38.46875 C 120.824219 39.210938 121.859375 38.914062 121.710938 38.175781 Z M 121.710938 38.175781 " fill-opacity="1" fill-rule="nonzero"/><path fill="#ffffff" d="M 115.125 34.105469 C 110.757812 32.179688 109.054688 27.292969 108.835938 22.855469 C 108.761719 20.558594 108.6875 17.671875 109.871094 15.601562 C 110.386719 14.640625 111.128906 13.824219 111.722656 12.863281 C 112.386719 11.828125 113.125 10.863281 113.792969 9.753906 C 116.160156 6.203125 120.011719 1.761719 124.96875 2.945312 C 129.558594 4.128906 131.113281 9.382812 131.113281 13.527344 C 131.113281 16.121094 130.742188 18.859375 130.074219 21.375 C 129.558594 23.742188 128.59375 26.109375 126.746094 27.8125 C 126.226562 28.257812 126.96875 29.070312 127.484375 28.554688 C 131.039062 25.222656 131.703125 19.597656 132.148438 14.933594 C 132.445312 10.199219 131.332031 4.648438 126.671875 2.351562 C 122.007812 0.132812 117.34375 3.167969 114.460938 6.792969 C 112.757812 8.941406 111.277344 11.234375 109.722656 13.527344 C 109.054688 14.492188 108.464844 15.378906 108.167969 16.5625 C 107.796875 17.894531 107.796875 19.375 107.722656 20.707031 C 107.574219 26.183594 109.054688 32.550781 114.53125 34.917969 C 115.199219 35.363281 115.867188 34.398438 115.125 34.105469 Z M 115.125 34.105469 " fill-opacity="1" fill-rule="nonzero"/><path fill="#ffffff" d="M 90.554688 34.695312 C 89.519531 31.882812 86.410156 31.367188 83.894531 30.476562 C 80.636719 29.21875 77.15625 26.777344 75.53125 23.59375 C 73.53125 19.597656 82.78125 19.375 84.929688 19.523438 C 88.925781 19.746094 92.847656 20.929688 96.621094 22.335938 C 98.769531 23.078125 100.839844 24.039062 103.0625 24.925781 C 105.058594 25.742188 106.984375 26.777344 108.613281 28.257812 C 109.128906 28.699219 109.945312 27.960938 109.351562 27.515625 C 106.390625 24.703125 102.171875 23.371094 98.472656 21.890625 C 94.402344 20.265625 90.035156 18.859375 85.667969 18.5625 C 83.597656 18.414062 81.597656 18.488281 79.527344 18.859375 C 77.898438 19.152344 75.824219 19.597656 74.714844 20.929688 C 73.605469 22.335938 74.34375 24.039062 75.234375 25.222656 C 76.34375 26.703125 77.601562 28.035156 79.082031 29.144531 C 80.785156 30.402344 82.632812 31.292969 84.558594 31.957031 C 86.335938 32.550781 88.628906 33.140625 89.371094 35.066406 C 89.664062 35.65625 90.777344 35.363281 90.554688 34.695312 Z M 90.554688 34.695312 " fill-opacity="1" fill-rule="nonzero"/><path fill="#ffffff" d="M 154.351562 77.992188 C 148.578125 75.992188 143.101562 73.253906 137.921875 70.074219 C 137.847656 70.367188 137.773438 70.738281 137.625 71.109375 C 142.730469 70.589844 147.835938 70.738281 152.945312 71.628906 C 153.242188 71.699219 153.609375 71.480469 153.609375 71.109375 C 153.460938 66.371094 153.242188 61.710938 153.09375 56.972656 C 152.796875 57.046875 152.425781 57.121094 152.054688 57.269531 C 155.089844 62.003906 157.53125 66.964844 159.308594 72.21875 C 159.457031 72.664062 159.976562 72.738281 160.34375 72.367188 C 162.34375 69.777344 164.34375 67.113281 166.339844 64.523438 C 166.042969 64.449219 165.675781 64.449219 165.304688 64.375 C 165.824219 67.335938 165.230469 70.367188 163.675781 72.960938 C 163.304688 73.550781 164.269531 74.144531 164.636719 73.476562 C 166.414062 70.589844 167.007812 67.335938 166.414062 64.078125 C 166.339844 63.558594 165.675781 63.632812 165.378906 63.929688 C 163.378906 66.519531 161.382812 69.183594 159.382812 71.773438 C 159.679688 71.847656 160.050781 71.847656 160.417969 71.921875 C 158.570312 66.519531 156.125 61.414062 153.019531 56.75 C 152.722656 56.308594 151.910156 56.453125 151.980469 57.046875 C 152.128906 61.785156 152.351562 66.445312 152.5 71.183594 C 152.722656 71.035156 152.945312 70.8125 153.167969 70.664062 C 147.984375 69.703125 142.804688 69.480469 137.550781 70.074219 C 137.03125 70.148438 136.808594 70.738281 137.253906 71.109375 C 142.507812 74.441406 148.132812 77.105469 153.980469 79.25 C 154.722656 79.324219 155.089844 78.214844 154.351562 77.992188 Z M 154.351562 77.992188 " fill-opacity="1" fill-rule="nonzero"/><path fill="#ffffff" d="M 157.976562 74.511719 C 154.277344 78.289062 156.054688 84.0625 159.457031 87.316406 C 163.824219 91.609375 170.261719 93.015625 174.777344 97.457031 C 175.886719 98.566406 176.925781 99.75 177.960938 101.007812 C 178.550781 101.75 179.441406 102.859375 180.476562 102.195312 C 181.585938 101.601562 181.734375 99.898438 182.03125 98.863281 C 182.476562 97.234375 182.84375 95.605469 183.289062 93.976562 C 183.878906 91.019531 184.621094 87.910156 183.585938 84.949219 C 182.769531 82.507812 180.847656 80.582031 178.773438 79.175781 C 175.8125 77.324219 172.410156 76.585938 169.078125 75.84375 C 165.304688 75.03125 161.457031 74.21875 157.605469 73.625 C 156.941406 73.476562 156.570312 74.585938 157.3125 74.734375 C 160.273438 75.253906 163.15625 75.84375 166.042969 76.4375 C 168.855469 76.957031 171.59375 77.546875 174.332031 78.4375 C 176.777344 79.25 179.21875 80.507812 180.921875 82.582031 C 182.695312 84.652344 183.140625 87.242188 182.917969 89.90625 C 182.621094 92.867188 181.808594 95.753906 181.070312 98.640625 C 180.921875 99.308594 180.773438 100.046875 180.476562 100.640625 C 180.105469 101.601562 179.734375 101.304688 179.144531 100.714844 C 178.183594 99.601562 177.292969 98.492188 176.257812 97.382812 C 174.40625 95.382812 172.261719 93.902344 169.820312 92.570312 C 167.597656 91.3125 165.230469 90.277344 163.15625 88.871094 C 160.863281 87.316406 158.496094 85.246094 157.605469 82.507812 C 156.867188 80.136719 157.089844 77.25 158.9375 75.402344 C 159.308594 74.808594 158.570312 73.996094 157.976562 74.511719 Z M 157.976562 74.511719 " fill-opacity="1" fill-rule="nonzero"/><g clip-path="url(#12a4e2c83a)"><path fill="#ffffff" d="M 159.085938 74.585938 C 166.117188 74.585938 173.222656 74.441406 180.253906 74.585938 C 183.363281 74.660156 186.691406 75.03125 189.359375 76.660156 C 191.800781 78.140625 194.167969 81.765625 191.578125 84.28125 C 190.542969 85.320312 189.0625 85.542969 187.65625 85.761719 C 186.175781 85.984375 184.695312 86.132812 183.363281 86.578125 C 182.695312 86.800781 182.992188 87.910156 183.660156 87.6875 C 186.25 86.652344 189.429688 87.242188 191.875 85.542969 C 194.316406 83.839844 194.316406 80.359375 192.6875 78.140625 C 190.835938 75.550781 187.507812 74.292969 184.398438 73.847656 C 180.699219 73.328125 176.925781 73.476562 173.148438 73.476562 C 168.488281 73.476562 163.824219 73.476562 159.160156 73.476562 C 158.421875 73.550781 158.421875 74.585938 159.085938 74.585938 Z M 159.085938 74.585938 " fill-opacity="1" fill-rule="nonzero"/></g><path fill="#ffffff" d="M 167.523438 74.21875 C 169.671875 69.628906 171.742188 65.113281 173.964844 60.527344 C 175.589844 57.121094 177.515625 53.347656 181.140625 51.792969 C 180.847656 51.644531 180.625 51.496094 180.328125 51.347656 C 180.625 55.417969 177.21875 58.527344 174.925781 61.5625 C 172.410156 64.890625 170.632812 68.742188 169.671875 72.8125 C 169.523438 73.476562 170.632812 73.847656 170.78125 73.105469 C 171.816406 68.667969 173.816406 64.671875 176.628906 61.117188 C 178.921875 58.230469 181.734375 55.269531 181.511719 51.347656 C 181.511719 50.902344 181.070312 50.757812 180.699219 50.902344 C 177.070312 52.53125 175 56.085938 173.371094 59.5625 C 171.152344 64.300781 168.929688 68.960938 166.710938 73.773438 C 166.191406 74.292969 167.15625 74.882812 167.523438 74.21875 Z M 167.523438 74.21875 " fill-opacity="1" fill-rule="nonzero"/><path fill="#ffffff" d="M 155.386719 83.839844 C 156.496094 87.539062 158.496094 91.09375 160.34375 94.496094 C 162.121094 97.753906 164.195312 100.714844 166.710938 103.453125 C 169.003906 105.894531 171.519531 108.410156 173.074219 111.371094 C 173.445312 112.109375 173.742188 112.925781 174.039062 113.664062 C 174.183594 114.183594 174.40625 114.847656 175 115.070312 C 176.257812 115.664062 176.996094 114.332031 177.367188 113.367188 C 178.921875 109.078125 179.734375 104.488281 180.179688 99.972656 C 180.253906 99.308594 179.070312 99.308594 179.070312 99.972656 C 178.773438 103.671875 178.035156 107.300781 177.070312 110.851562 C 176.851562 111.59375 176.628906 112.480469 176.332031 113.222656 C 176.183594 113.515625 176.035156 114.035156 175.664062 113.960938 C 175.371094 113.886719 175.222656 113 175.148438 112.703125 C 174.703125 111.371094 174.039062 110.261719 173.371094 109.078125 C 171.742188 106.632812 169.671875 104.488281 167.746094 102.414062 C 165.527344 99.972656 163.675781 97.308594 162.046875 94.421875 C 161.085938 92.71875 160.199219 90.945312 159.308594 89.242188 C 158.347656 87.390625 157.460938 85.46875 156.867188 83.46875 C 156.273438 82.875 155.238281 83.097656 155.386719 83.839844 Z M 155.386719 83.839844 " fill-opacity="1" fill-rule="nonzero"/><path fill="#ffffff" d="M 88.257812 170.503906 C 95.140625 174.28125 99.804688 181.605469 100.398438 189.527344 C 100.472656 190.191406 101.582031 190.191406 101.507812 189.527344 C 100.988281 181.238281 96.105469 173.613281 88.851562 169.617188 C 88.257812 169.171875 87.667969 170.207031 88.257812 170.503906 Z M 88.257812 170.503906 " fill-opacity="1" fill-rule="nonzero"/><path fill="#ffffff" d="M 108.019531 97.308594 C 114.753906 108.632812 119.195312 121.214844 121.046875 134.386719 C 122.082031 141.492188 122.230469 148.746094 122.007812 155.925781 C 121.785156 163.179688 121.195312 170.429688 120.15625 177.609375 C 119.046875 185.527344 117.417969 193.523438 115.421875 201.292969 C 115.273438 201.960938 116.382812 202.328125 116.53125 201.589844 C 120.15625 187.527344 122.304688 173.09375 123.042969 158.589844 C 123.339844 151.261719 123.339844 143.933594 122.527344 136.683594 C 121.785156 130.09375 120.378906 123.582031 118.308594 117.292969 C 116.011719 110.1875 112.90625 103.304688 109.054688 96.9375 C 108.6875 96.125 107.648438 96.714844 108.019531 97.308594 Z M 108.019531 97.308594 " fill-opacity="1" fill-rule="nonzero"/><path fill="#ffffff" d="M 143.175781 73.550781 C 139.84375 75.105469 138.070312 78.878906 136.367188 81.988281 C 134.441406 85.46875 132.664062 89.019531 131.039062 92.570312 C 127.707031 99.898438 125.117188 107.375 122.824219 115.144531 C 118.457031 130.761719 115.9375 146.820312 114.238281 162.882812 C 113.199219 171.984375 112.460938 181.164062 111.722656 190.339844 C 111.648438 191.003906 112.832031 191.003906 112.832031 190.339844 C 114.164062 174.351562 115.421875 158.367188 118.011719 142.527344 C 120.527344 126.914062 124.226562 111.445312 130.371094 96.714844 C 132.074219 92.644531 133.996094 88.574219 136.070312 84.652344 C 137.105469 82.730469 138.140625 80.804688 139.328125 78.953125 C 140.4375 77.179688 141.621094 75.402344 143.621094 74.511719 C 144.433594 74.144531 143.839844 73.253906 143.175781 73.550781 Z M 143.175781 73.550781 " fill-opacity="1" fill-rule="nonzero"/><path fill="#ffffff" d="M 126.375 47.425781 C 129.410156 56.601562 132.222656 65.929688 131.183594 75.773438 C 130.667969 80.582031 129.484375 85.171875 128.742188 89.90625 C 128.003906 94.644531 127.484375 99.382812 127.1875 104.191406 C 126.003906 122.84375 127.484375 141.714844 124.523438 160.21875 C 122.96875 169.914062 120.230469 179.460938 115.421875 188.121094 C 115.125 188.710938 116.011719 189.304688 116.382812 188.636719 C 125.042969 173.019531 127.039062 154.890625 127.484375 137.347656 C 127.78125 127.578125 127.632812 117.660156 128.003906 107.890625 C 128.226562 103.007812 128.59375 98.195312 129.261719 93.386719 C 129.851562 88.425781 131.039062 83.617188 131.777344 78.65625 C 132.589844 73.402344 132.589844 68.222656 131.777344 62.96875 C 130.816406 57.566406 129.1875 52.308594 127.410156 47.128906 C 127.1875 46.539062 126.152344 46.757812 126.375 47.425781 Z M 126.375 47.425781 " fill-opacity="1" fill-rule="nonzero"/><g clip-path="url(#befd855055)"><path fill="#ffffff" d="M 87 222.535156 C 90.703125 229.714844 93.515625 237.335938 95.140625 245.253906 C 96.917969 254.0625 97.214844 263.09375 96.917969 272.046875 C 96.328125 290.105469 92.328125 308.015625 87.964844 325.558594 C 85.078125 337.101562 81.820312 348.574219 78.195312 359.824219 C 77.972656 360.488281 79.007812 360.859375 79.304688 360.121094 C 85.226562 341.691406 90.257812 322.964844 94.03125 304.019531 C 95.957031 294.546875 97.4375 284.925781 97.953125 275.304688 C 98.398438 265.90625 98.25 256.28125 96.621094 247.03125 C 95.070312 238.296875 92.035156 229.859375 88.039062 222.089844 C 87.59375 221.277344 86.707031 221.941406 87 222.535156 Z M 87 222.535156 " fill-opacity="1" fill-rule="nonzero"/></g><path fill="#ffffff" d="M 96.179688 291.289062 C 98.398438 284.925781 101.433594 278.78125 105.132812 273.15625 C 108.6875 267.753906 112.757812 263.09375 117.566406 258.726562 C 119.34375 257.097656 121.046875 255.46875 122.601562 253.617188 C 124.597656 251.324219 126.226562 248.660156 127.78125 245.996094 C 129.1875 243.480469 130.296875 240.816406 131.257812 238.078125 C 132.074219 235.78125 132.8125 233.339844 133.851562 231.121094 C 136.734375 225.199219 141.101562 220.019531 145.988281 215.503906 C 147.097656 214.46875 148.578125 213.503906 149.390625 212.246094 C 149.910156 211.433594 149.316406 210.765625 148.429688 210.839844 C 147.023438 210.914062 145.617188 211.65625 144.507812 212.246094 C 142.285156 213.355469 140.140625 214.542969 137.996094 215.949219 C 132.296875 219.722656 127.039062 224.382812 122.894531 229.789062 C 119.046875 234.746094 116.085938 240.371094 113.570312 246.070312 C 110.757812 252.210938 108.6875 258.726562 107.355469 265.386719 C 107.132812 266.71875 106.910156 267.976562 106.6875 269.234375 C 106.613281 269.902344 107.648438 270.269531 107.796875 269.53125 C 108.761719 263.609375 110.242188 257.6875 112.386719 252.0625 C 114.53125 246.21875 117.273438 240.371094 120.675781 235.117188 C 124.375 229.269531 129.1875 224.089844 134.738281 219.796875 C 138.511719 216.835938 142.730469 213.949219 147.246094 212.320312 C 147.691406 212.171875 148.28125 211.949219 148.726562 211.949219 L 148.949219 211.949219 C 149.023438 211.875 148.949219 212.023438 148.949219 211.949219 C 148.949219 212.023438 148.652344 211.507812 148.800781 211.582031 C 148.800781 211.582031 148.800781 211.65625 148.726562 211.730469 C 148.355469 212.023438 147.984375 212.542969 147.542969 212.914062 C 146.875 213.578125 146.0625 214.246094 145.394531 214.910156 C 140.734375 219.128906 136.589844 224.089844 133.628906 229.714844 C 131.332031 234.300781 130.222656 239.261719 127.929688 243.847656 C 125.488281 248.882812 122.230469 253.25 118.160156 257.023438 C 116.457031 258.652344 114.679688 260.207031 113.054688 261.90625 C 110.832031 264.203125 108.835938 266.71875 106.910156 269.234375 C 102.839844 274.785156 99.507812 280.929688 96.917969 287.292969 C 96.402344 288.550781 95.882812 289.734375 95.511719 291.066406 C 94.847656 291.660156 95.957031 292.03125 96.179688 291.289062 Z M 96.179688 291.289062 " fill-opacity="1" fill-rule="nonzero"/><path fill="#ffffff" d="M 95.660156 242.886719 C 91.515625 238.667969 87.148438 234.523438 82.855469 230.453125 C 79.820312 227.640625 76.714844 224.976562 73.605469 222.164062 C 71.679688 220.460938 70.054688 218.539062 68.792969 216.390625 C 66.945312 213.136719 65.910156 209.433594 65.390625 205.808594 C 64.429688 199.222656 64.945312 192.558594 65.910156 186.046875 C 65.613281 186.121094 65.316406 186.195312 64.945312 186.269531 C 69.164062 189.601562 73.457031 192.929688 77.75 196.039062 C 80.933594 198.40625 84.335938 200.773438 87.148438 203.511719 C 89.519531 205.808594 91.292969 208.621094 92.402344 211.804688 C 93.734375 215.875 94.550781 220.238281 94.996094 224.457031 C 95.660156 230.675781 95.511719 237.039062 94.699219 243.183594 C 94.625 243.847656 95.734375 243.847656 95.808594 243.183594 C 97.140625 233.042969 96.546875 222.832031 93.957031 212.988281 C 92.996094 209.582031 91.441406 206.324219 89 203.734375 C 86.558594 200.996094 83.523438 198.925781 80.636719 196.777344 C 75.605469 193.003906 70.644531 189.304688 65.761719 185.382812 C 65.464844 185.160156 64.945312 185.160156 64.796875 185.601562 C 63.316406 195.296875 62.652344 206.179688 67.019531 215.355469 C 69.90625 221.203125 75.308594 224.976562 79.96875 229.269531 C 85.078125 233.933594 90.035156 238.667969 94.847656 243.554688 C 95.289062 244.21875 96.105469 243.480469 95.660156 242.886719 Z M 95.660156 242.886719 " fill-opacity="1" fill-rule="nonzero"/></g></g></g></svg>